<mxfile host="65bd71144e">
    <diagram id="UdAcT7TkqNWxi-ry30Ia" name="Page-1">
        <mxGraphModel dx="244" dy="1409" grid="1" gridSize="10" guides="1" tooltips="1" connect="1" arrows="1" fold="1" page="1" pageScale="1" pageWidth="850" pageHeight="1100" math="0" shadow="0">
            <root>
                <mxCell id="0"/>
                <mxCell id="1" parent="0"/>
                <mxCell id="89" value="" style="rounded=1;whiteSpace=wrap;html=1;fontSize=19;dashed=1;fontColor=#ffffff;fillColor=none;strokeWidth=6;strokeColor=#005700;" parent="1" vertex="1">
                    <mxGeometry x="190" y="270" width="570" height="220" as="geometry"/>
                </mxCell>
                <mxCell id="8" value="strip 6" style="shape=cylinder3;whiteSpace=wrap;html=1;boundedLbl=1;backgroundOutline=1;size=15;fontSize=19;strokeColor=#000000;" parent="1" vertex="1">
                    <mxGeometry x="30" y="330" width="100" height="70" as="geometry"/>
                </mxCell>
                <mxCell id="7" value="strip 5" style="shape=cylinder3;whiteSpace=wrap;html=1;boundedLbl=1;backgroundOutline=1;size=15;fontSize=19;strokeColor=#000000;" parent="1" vertex="1">
                    <mxGeometry x="30" y="290" width="100" height="70" as="geometry"/>
                </mxCell>
                <mxCell id="6" value="strip 4" style="shape=cylinder3;whiteSpace=wrap;html=1;boundedLbl=1;backgroundOutline=1;size=15;fontSize=19;strokeColor=#000000;" parent="1" vertex="1">
                    <mxGeometry x="30" y="250" width="100" height="70" as="geometry"/>
                </mxCell>
                <mxCell id="5" value="strip 3" style="shape=cylinder3;whiteSpace=wrap;html=1;boundedLbl=1;backgroundOutline=1;size=15;fontSize=19;fillColor=#a20025;fontColor=#ffffff;strokeColor=#000000;" parent="1" vertex="1">
                    <mxGeometry x="30" y="210" width="100" height="70" as="geometry"/>
                </mxCell>
                <mxCell id="4" value="strip 2" style="shape=cylinder3;whiteSpace=wrap;html=1;boundedLbl=1;backgroundOutline=1;size=15;fontSize=19;fillColor=#a20025;fontColor=#ffffff;strokeColor=#000000;" parent="1" vertex="1">
                    <mxGeometry x="30" y="170" width="100" height="70" as="geometry"/>
                </mxCell>
                <mxCell id="3" value="strip 1" style="shape=cylinder3;whiteSpace=wrap;html=1;boundedLbl=1;backgroundOutline=1;size=15;fontSize=19;fillColor=#a20025;fontColor=#ffffff;strokeColor=#000000;" parent="1" vertex="1">
                    <mxGeometry x="30" y="130" width="100" height="70" as="geometry"/>
                </mxCell>
                <mxCell id="2" value="strip 0" style="shape=cylinder3;whiteSpace=wrap;html=1;boundedLbl=1;backgroundOutline=1;size=15;fontSize=19;fillColor=#a20025;fontColor=#ffffff;strokeColor=#000000;" parent="1" vertex="1">
                    <mxGeometry x="30" y="90" width="100" height="70" as="geometry"/>
                </mxCell>
                <mxCell id="46" value="..." style="text;html=1;strokeColor=none;fillColor=none;align=center;verticalAlign=bottom;whiteSpace=wrap;rounded=0;fontSize=40;fontStyle=1" parent="1" vertex="1">
                    <mxGeometry x="35" y="400" width="90" height="30" as="geometry"/>
                </mxCell>
                <mxCell id="47" value="" style="endArrow=none;dashed=1;html=1;strokeWidth=6;fillColor=#6a00ff;strokeColor=#3700CC;" parent="1" edge="1">
                    <mxGeometry width="50" height="50" relative="1" as="geometry">
                        <mxPoint x="160" y="400" as="sourcePoint"/>
                        <mxPoint x="160" y="20" as="targetPoint"/>
                    </mxGeometry>
                </mxCell>
                <mxCell id="49" value="Disk" style="text;html=1;strokeColor=none;fillColor=none;align=center;verticalAlign=middle;whiteSpace=wrap;rounded=0;fontSize=19;" parent="1" vertex="1">
                    <mxGeometry x="35" y="40" width="90" height="50" as="geometry"/>
                </mxCell>
                <mxCell id="51" value="Physical" style="text;html=1;strokeColor=none;fillColor=none;align=center;verticalAlign=middle;whiteSpace=wrap;rounded=0;fontSize=25;" parent="1" vertex="1">
                    <mxGeometry x="425" y="10" width="90" height="50" as="geometry"/>
                </mxCell>
                <mxCell id="52" value="Logical" style="text;html=1;strokeColor=none;fillColor=none;align=center;verticalAlign=middle;whiteSpace=wrap;rounded=0;fontSize=25;" parent="1" vertex="1">
                    <mxGeometry x="35" y="10" width="90" height="50" as="geometry"/>
                </mxCell>
                <mxCell id="53" value="strip 8" style="shape=cylinder3;whiteSpace=wrap;html=1;boundedLbl=1;backgroundOutline=1;size=15;fontSize=19;strokeColor=#000000;" parent="1" vertex="1">
                    <mxGeometry x="210" y="170" width="100" height="70" as="geometry"/>
                </mxCell>
                <mxCell id="54" value="strip 4" style="shape=cylinder3;whiteSpace=wrap;html=1;boundedLbl=1;backgroundOutline=1;size=15;fontSize=19;strokeColor=#000000;" parent="1" vertex="1">
                    <mxGeometry x="210" y="130" width="100" height="70" as="geometry"/>
                </mxCell>
                <mxCell id="55" value="strip 0" style="shape=cylinder3;whiteSpace=wrap;html=1;boundedLbl=1;backgroundOutline=1;size=15;fontSize=19;fillColor=#a20025;fontColor=#ffffff;strokeColor=#000000;" parent="1" vertex="1">
                    <mxGeometry x="210" y="90" width="100" height="70" as="geometry"/>
                </mxCell>
                <mxCell id="56" value="strip 10" style="shape=cylinder3;whiteSpace=wrap;html=1;boundedLbl=1;backgroundOutline=1;size=15;fontSize=19;strokeColor=#000000;" parent="1" vertex="1">
                    <mxGeometry x="490" y="170" width="100" height="70" as="geometry"/>
                </mxCell>
                <mxCell id="57" value="strip 6" style="shape=cylinder3;whiteSpace=wrap;html=1;boundedLbl=1;backgroundOutline=1;size=15;fontSize=19;strokeColor=#000000;" parent="1" vertex="1">
                    <mxGeometry x="490" y="130" width="100" height="70" as="geometry"/>
                </mxCell>
                <mxCell id="58" value="strip 2" style="shape=cylinder3;whiteSpace=wrap;html=1;boundedLbl=1;backgroundOutline=1;size=15;fontSize=19;fillColor=#a20025;fontColor=#ffffff;strokeColor=#000000;" parent="1" vertex="1">
                    <mxGeometry x="490" y="90" width="100" height="70" as="geometry"/>
                </mxCell>
                <mxCell id="59" value="strip 9" style="shape=cylinder3;whiteSpace=wrap;html=1;boundedLbl=1;backgroundOutline=1;size=15;fontSize=19;strokeColor=#000000;" parent="1" vertex="1">
                    <mxGeometry x="350" y="170" width="100" height="70" as="geometry"/>
                </mxCell>
                <mxCell id="60" value="strip 5" style="shape=cylinder3;whiteSpace=wrap;html=1;boundedLbl=1;backgroundOutline=1;size=15;fontSize=19;strokeColor=#000000;" parent="1" vertex="1">
                    <mxGeometry x="350" y="130" width="100" height="70" as="geometry"/>
                </mxCell>
                <mxCell id="61" value="strip 1" style="shape=cylinder3;whiteSpace=wrap;html=1;boundedLbl=1;backgroundOutline=1;size=15;fontSize=19;fillColor=#a20025;fontColor=#ffffff;strokeColor=#000000;" parent="1" vertex="1">
                    <mxGeometry x="350" y="90" width="100" height="70" as="geometry"/>
                </mxCell>
                <mxCell id="62" value="strip 11" style="shape=cylinder3;whiteSpace=wrap;html=1;boundedLbl=1;backgroundOutline=1;size=15;fontSize=19;strokeColor=#000000;" parent="1" vertex="1">
                    <mxGeometry x="640" y="170" width="100" height="70" as="geometry"/>
                </mxCell>
                <mxCell id="63" value="strip 7" style="shape=cylinder3;whiteSpace=wrap;html=1;boundedLbl=1;backgroundOutline=1;size=15;fontSize=19;strokeColor=#000000;" parent="1" vertex="1">
                    <mxGeometry x="640" y="130" width="100" height="70" as="geometry"/>
                </mxCell>
                <mxCell id="64" value="strip 3" style="shape=cylinder3;whiteSpace=wrap;html=1;boundedLbl=1;backgroundOutline=1;size=15;fontSize=19;fillColor=#a20025;fontColor=#ffffff;strokeColor=#000000;" parent="1" vertex="1">
                    <mxGeometry x="640" y="90" width="100" height="70" as="geometry"/>
                </mxCell>
                <mxCell id="65" value="Disk 2" style="text;html=1;strokeColor=none;fillColor=none;align=center;verticalAlign=middle;whiteSpace=wrap;rounded=0;fontSize=19;" parent="1" vertex="1">
                    <mxGeometry x="495" y="40" width="90" height="50" as="geometry"/>
                </mxCell>
                <mxCell id="66" value="Disk 3" style="text;html=1;strokeColor=none;fillColor=none;align=center;verticalAlign=middle;whiteSpace=wrap;rounded=0;fontSize=19;" parent="1" vertex="1">
                    <mxGeometry x="645" y="40" width="90" height="50" as="geometry"/>
                </mxCell>
                <mxCell id="69" value="..." style="text;html=1;strokeColor=none;fillColor=none;align=center;verticalAlign=bottom;whiteSpace=wrap;rounded=0;fontSize=40;fontStyle=1" parent="1" vertex="1">
                    <mxGeometry x="215" y="240" width="90" height="30" as="geometry"/>
                </mxCell>
                <mxCell id="70" value="..." style="text;html=1;strokeColor=none;fillColor=none;align=center;verticalAlign=bottom;whiteSpace=wrap;rounded=0;fontSize=40;fontStyle=1" parent="1" vertex="1">
                    <mxGeometry x="355" y="240" width="90" height="30" as="geometry"/>
                </mxCell>
                <mxCell id="71" value="..." style="text;html=1;strokeColor=none;fillColor=none;align=center;verticalAlign=bottom;whiteSpace=wrap;rounded=0;fontSize=40;fontStyle=1" parent="1" vertex="1">
                    <mxGeometry x="495" y="240" width="90" height="30" as="geometry"/>
                </mxCell>
                <mxCell id="72" value="..." style="text;html=1;strokeColor=none;fillColor=none;align=center;verticalAlign=bottom;whiteSpace=wrap;rounded=0;fontSize=40;fontStyle=1" parent="1" vertex="1">
                    <mxGeometry x="645" y="240" width="90" height="30" as="geometry"/>
                </mxCell>
                <mxCell id="73" value="Disk 0" style="text;html=1;strokeColor=none;fillColor=none;align=center;verticalAlign=middle;whiteSpace=wrap;rounded=0;fontSize=19;" parent="1" vertex="1">
                    <mxGeometry x="215" y="40" width="90" height="50" as="geometry"/>
                </mxCell>
                <mxCell id="74" value="Disk 1" style="text;html=1;strokeColor=none;fillColor=none;align=center;verticalAlign=middle;whiteSpace=wrap;rounded=0;fontSize=19;" parent="1" vertex="1">
                    <mxGeometry x="355" y="40" width="90" height="50" as="geometry"/>
                </mxCell>
                <mxCell id="75" value="strip 8" style="shape=cylinder3;whiteSpace=wrap;html=1;boundedLbl=1;backgroundOutline=1;size=15;fontSize=19;strokeColor=#000000;" parent="1" vertex="1">
                    <mxGeometry x="210" y="390" width="100" height="70" as="geometry"/>
                </mxCell>
                <mxCell id="76" value="strip 4" style="shape=cylinder3;whiteSpace=wrap;html=1;boundedLbl=1;backgroundOutline=1;size=15;fontSize=19;strokeColor=#000000;" parent="1" vertex="1">
                    <mxGeometry x="210" y="350" width="100" height="70" as="geometry"/>
                </mxCell>
                <mxCell id="77" value="strip 0" style="shape=cylinder3;whiteSpace=wrap;html=1;boundedLbl=1;backgroundOutline=1;size=15;fontSize=19;fillColor=#a20025;fontColor=#ffffff;strokeColor=#000000;" parent="1" vertex="1">
                    <mxGeometry x="210" y="310" width="100" height="70" as="geometry"/>
                </mxCell>
                <mxCell id="78" value="strip 10" style="shape=cylinder3;whiteSpace=wrap;html=1;boundedLbl=1;backgroundOutline=1;size=15;fontSize=19;strokeColor=#000000;" parent="1" vertex="1">
                    <mxGeometry x="490" y="390" width="100" height="70" as="geometry"/>
                </mxCell>
                <mxCell id="79" value="strip 6" style="shape=cylinder3;whiteSpace=wrap;html=1;boundedLbl=1;backgroundOutline=1;size=15;fontSize=19;strokeColor=#000000;" parent="1" vertex="1">
                    <mxGeometry x="490" y="350" width="100" height="70" as="geometry"/>
                </mxCell>
                <mxCell id="80" value="strip 2" style="shape=cylinder3;whiteSpace=wrap;html=1;boundedLbl=1;backgroundOutline=1;size=15;fontSize=19;fillColor=#a20025;fontColor=#ffffff;strokeColor=#000000;" parent="1" vertex="1">
                    <mxGeometry x="490" y="310" width="100" height="70" as="geometry"/>
                </mxCell>
                <mxCell id="81" value="strip 9" style="shape=cylinder3;whiteSpace=wrap;html=1;boundedLbl=1;backgroundOutline=1;size=15;fontSize=19;strokeColor=#000000;" parent="1" vertex="1">
                    <mxGeometry x="350" y="390" width="100" height="70" as="geometry"/>
                </mxCell>
                <mxCell id="82" value="strip 5" style="shape=cylinder3;whiteSpace=wrap;html=1;boundedLbl=1;backgroundOutline=1;size=15;fontSize=19;strokeColor=#000000;" parent="1" vertex="1">
                    <mxGeometry x="350" y="350" width="100" height="70" as="geometry"/>
                </mxCell>
                <mxCell id="83" value="strip 1" style="shape=cylinder3;whiteSpace=wrap;html=1;boundedLbl=1;backgroundOutline=1;size=15;fontSize=19;fillColor=#a20025;fontColor=#ffffff;strokeColor=#000000;" parent="1" vertex="1">
                    <mxGeometry x="350" y="310" width="100" height="70" as="geometry"/>
                </mxCell>
                <mxCell id="84" value="strip 11" style="shape=cylinder3;whiteSpace=wrap;html=1;boundedLbl=1;backgroundOutline=1;size=15;fontSize=19;strokeColor=#000000;" parent="1" vertex="1">
                    <mxGeometry x="640" y="390" width="100" height="70" as="geometry"/>
                </mxCell>
                <mxCell id="85" value="strip 7" style="shape=cylinder3;whiteSpace=wrap;html=1;boundedLbl=1;backgroundOutline=1;size=15;fontSize=19;strokeColor=#000000;" parent="1" vertex="1">
                    <mxGeometry x="640" y="350" width="100" height="70" as="geometry"/>
                </mxCell>
                <mxCell id="86" value="strip 3" style="shape=cylinder3;whiteSpace=wrap;html=1;boundedLbl=1;backgroundOutline=1;size=15;fontSize=19;fillColor=#a20025;fontColor=#ffffff;strokeColor=#000000;" parent="1" vertex="1">
                    <mxGeometry x="640" y="310" width="100" height="70" as="geometry"/>
                </mxCell>
                <mxCell id="87" value="Disk 6" style="text;html=1;strokeColor=none;fillColor=none;align=center;verticalAlign=middle;whiteSpace=wrap;rounded=0;fontSize=19;" parent="1" vertex="1">
                    <mxGeometry x="495" y="270" width="90" height="50" as="geometry"/>
                </mxCell>
                <mxCell id="88" value="Disk 7" style="text;html=1;strokeColor=none;fillColor=none;align=center;verticalAlign=middle;whiteSpace=wrap;rounded=0;fontSize=19;" parent="1" vertex="1">
                    <mxGeometry x="645" y="270" width="90" height="50" as="geometry"/>
                </mxCell>
                <mxCell id="90" value="Mirror" style="text;html=1;strokeColor=none;fillColor=none;align=center;verticalAlign=middle;whiteSpace=wrap;rounded=0;dashed=1;fontSize=25;fontColor=#005700;" parent="1" vertex="1">
                    <mxGeometry x="780" y="335" width="60" height="20" as="geometry"/>
                </mxCell>
                <mxCell id="91" value="..." style="text;html=1;strokeColor=none;fillColor=none;align=center;verticalAlign=bottom;whiteSpace=wrap;rounded=0;fontSize=40;fontStyle=1" parent="1" vertex="1">
                    <mxGeometry x="215" y="460" width="90" height="30" as="geometry"/>
                </mxCell>
                <mxCell id="92" value="..." style="text;html=1;strokeColor=none;fillColor=none;align=center;verticalAlign=bottom;whiteSpace=wrap;rounded=0;fontSize=40;fontStyle=1" parent="1" vertex="1">
                    <mxGeometry x="355" y="460" width="90" height="30" as="geometry"/>
                </mxCell>
                <mxCell id="93" value="..." style="text;html=1;strokeColor=none;fillColor=none;align=center;verticalAlign=bottom;whiteSpace=wrap;rounded=0;fontSize=40;fontStyle=1" parent="1" vertex="1">
                    <mxGeometry x="495" y="460" width="90" height="30" as="geometry"/>
                </mxCell>
                <mxCell id="94" value="..." style="text;html=1;strokeColor=none;fillColor=none;align=center;verticalAlign=bottom;whiteSpace=wrap;rounded=0;fontSize=40;fontStyle=1" parent="1" vertex="1">
                    <mxGeometry x="645" y="460" width="90" height="30" as="geometry"/>
                </mxCell>
                <mxCell id="95" value="Disk 4" style="text;html=1;strokeColor=none;fillColor=none;align=center;verticalAlign=middle;whiteSpace=wrap;rounded=0;fontSize=19;" parent="1" vertex="1">
                    <mxGeometry x="215" y="270" width="90" height="50" as="geometry"/>
                </mxCell>
                <mxCell id="96" value="Disk 5" style="text;html=1;strokeColor=none;fillColor=none;align=center;verticalAlign=middle;whiteSpace=wrap;rounded=0;fontSize=19;" parent="1" vertex="1">
                    <mxGeometry x="355" y="270" width="90" height="50" as="geometry"/>
                </mxCell>
            </root>
        </mxGraphModel>
    </diagram>
</mxfile>